<svg xmlns="http://www.w3.org/2000/svg" width="172" height="32" viewBox="0 0 172 32" fill="none">
  <rect width="32" height="32" rx="7" fill="#465FFF"/>
  <g transform="translate(6 6) scale(0.8333)" fill="none" stroke="#FFFFFF" stroke-width="2" stroke-linecap="round" stroke-linejoin="round">
    <path d="M10.268 21a2 2 0 0 0 3.464 0"/>
    <path d="M22 8c0-2.3-.8-4.3-2-6"/>
    <path d="M3.262 15.326A1 1 0 0 0 4 17h16a1 1 0 0 0 .74-1.673C19.41 13.956 18 12.499 18 8A6 6 0 0 0 6 8c0 4.499-1.411 5.956-2.738 7.326"/>
    <path d="M4 2C2.8 3.7 2 5.7 2 8"/>
  </g>
  <text x="42" y="22.5" font-family="Geist, Inter, -apple-system, 'Segoe UI', Helvetica, Arial, sans-serif" font-size="19" font-weight="600" fill="#F8FAFC">Need Alert</text>
</svg>
